<svg id="calendar" xmlns="http://www.w3.org/2000/svg" width="83.322" height="83.322" viewBox="0 0 83.322 83.322">
  <g id="Сгруппировать_8" data-name="Сгруппировать 8">
    <g id="Сгруппировать_7" data-name="Сгруппировать 7">
      <ellipse id="Эллипс_3" data-name="Эллипс 3" cx="3" cy="3.5" rx="3" ry="3.5" transform="translate(59.953 30.369)"/>
      <path id="Контур_71" data-name="Контур 71" d="M70.3,6.51H66.072V3.255a3.255,3.255,0,1,0-6.51,0V6.51H44.753V3.255a3.255,3.255,0,1,0-6.51,0V6.51H23.6V3.255a3.255,3.255,0,0,0-6.51,0V6.51H13.019A13.034,13.034,0,0,0,0,19.529V70.3A13.034,13.034,0,0,0,13.019,83.322h24.9a3.255,3.255,0,1,0,0-6.51h-24.9A6.517,6.517,0,0,1,6.51,70.3V19.529a6.517,6.517,0,0,1,6.51-6.51h4.068v3.255a3.255,3.255,0,1,0,6.51,0V13.019H38.243v3.255a3.255,3.255,0,1,0,6.51,0V13.019H59.562v3.255a3.255,3.255,0,1,0,6.51,0V13.019H70.3a6.517,6.517,0,0,1,6.51,6.51V38.081a3.255,3.255,0,1,0,6.51,0V19.529A13.034,13.034,0,0,0,70.3,6.51Z"/>
      <path id="Контур_72" data-name="Контур 72" d="M289.691,270a19.691,19.691,0,1,0,19.691,19.691A19.713,19.713,0,0,0,289.691,270Zm0,32.873a13.182,13.182,0,1,1,13.182-13.182A13.2,13.2,0,0,1,289.691,302.873Z" transform="translate(-226.061 -226.061)"/>
      <path id="Контур_73" data-name="Контур 73" d="M378.974,336.672H377.51v-3.417a3.255,3.255,0,0,0-6.51,0v6.672a3.255,3.255,0,0,0,3.255,3.255h4.719a3.255,3.255,0,0,0,0-6.51Z" transform="translate(-310.624 -276.297)"/>
      <circle id="Эллипс_4" data-name="Эллипс 4" cx="3.5" cy="3.5" r="3.5" transform="translate(44.953 30.369)"/>
      <ellipse id="Эллипс_5" data-name="Эллипс 5" cx="3.5" cy="3" rx="3.5" ry="3" transform="translate(30.953 45.369)"/>
      <circle id="Эллипс_6" data-name="Эллипс 6" cx="3.5" cy="3.5" r="3.5" transform="translate(16.953 30.369)"/>
      <ellipse id="Эллипс_7" data-name="Эллипс 7" cx="3.5" cy="3" rx="3.5" ry="3" transform="translate(16.953 45.369)"/>
      <circle id="Эллипс_8" data-name="Эллипс 8" cx="3.5" cy="3.5" r="3.5" transform="translate(16.953 59.369)"/>
      <circle id="Эллипс_9" data-name="Эллипс 9" cx="3.5" cy="3.5" r="3.5" transform="translate(30.953 59.369)"/>
      <circle id="Эллипс_10" data-name="Эллипс 10" cx="3.5" cy="3.5" r="3.5" transform="translate(30.953 30.369)"/>
    </g>
  </g>
</svg>
