<svg xmlns="http://www.w3.org/2000/svg" width="97.671" height="68.942" viewBox="0 0 97.671 68.942">
  <path id="cash" d="M47.176,99.813c0,.834.358,2.062,3.456,3.095,1.316.439,5.319,1.773,5.319,5.68a5.759,5.759,0,0,1-4.387,5.585v.584a1.362,1.362,0,0,1-2.725,0v-.584a5.759,5.759,0,0,1-4.387-5.585,1.362,1.362,0,0,1,2.725,0,3.025,3.025,0,1,0,6.05,0c0-.961-.411-2.08-3.456-3.095-3.529-1.177-5.319-3.087-5.319-5.68a5.759,5.759,0,0,1,4.387-5.585v-.584a1.362,1.362,0,1,1,2.725,0v.584a5.759,5.759,0,0,1,4.387,5.585,1.362,1.362,0,0,1-2.725,0,3.025,3.025,0,0,0-6.05,0Zm50.5-19.375v47.525a1.362,1.362,0,0,1-1.362,1.362H94.941v7.794a1.362,1.362,0,0,1-1.362,1.362,1.336,1.336,0,0,1-.135-.007l-3.963-.393v8.574a1.363,1.363,0,0,1-1.649,1.332L1.091,129.3H1.084l-.008,0c-.021,0-.04-.011-.06-.016l-.047-.012-.055-.019-.02-.007-.041-.015-.01,0L.794,129.2l-.051-.023-.012-.007h0l-.045-.026-.045-.026-.02-.014-.039-.027-.039-.028-.026-.021L.481,129l-.032-.028-.03-.028-.029-.028-.025-.027-.033-.037-.025-.029L.288,128.8l-.032-.043-.022-.029L.219,128.7l-.028-.046c-.007-.011-.014-.022-.02-.033l-.016-.031-.02-.041-.018-.039L.1,128.475l-.013-.035c-.006-.015-.011-.03-.016-.045s-.009-.027-.014-.042l-.008-.027c-.005-.018-.009-.036-.013-.055s-.007-.029-.01-.044l0-.019c0-.023-.007-.047-.01-.07s0-.027-.006-.041v-.01C0,128.046,0,128,0,127.962V80.437a1.362,1.362,0,0,1,1.362-1.362H96.309A1.362,1.362,0,0,1,97.671,80.437ZM82.171,126.6a14.228,14.228,0,0,1,12.775-12.775V94.575A14.228,14.228,0,0,1,82.171,81.8H15.5A14.227,14.227,0,0,1,2.725,94.575v19.249A14.228,14.228,0,0,1,15.5,126.6h66.67Zm-69.412,0A11.5,11.5,0,0,0,2.725,116.566V126.6H12.759Zm0-44.8H2.725V91.834A11.5,11.5,0,0,0,12.759,81.8Zm82.188,0H84.912A11.5,11.5,0,0,0,94.946,91.834Zm-8.19,56.01-61.612-6.118,61.613,13.275V137.81Zm5.46-8.485H28.873l63.343,6.289Zm2.73-2.725V116.566A11.5,11.5,0,0,0,84.912,126.6H94.946ZM63.071,93.5a1.362,1.362,0,0,0-.331,1.9A15.313,15.313,0,1,1,59,91.661a1.362,1.362,0,0,0,1.567-2.229,18.039,18.039,0,1,0,4.4,4.4A1.363,1.363,0,0,0,63.071,93.5Z" transform="translate(0 -79.075)"/>
</svg>
