<svg id="_011-instagram" data-name="011-instagram" xmlns="http://www.w3.org/2000/svg" width="70.455" height="70.455" viewBox="0 0 70.455 70.455">
  <path id="Контур_16" data-name="Контур 16" d="M220.486,213.743A6.743,6.743,0,1,1,213.743,207,6.743,6.743,0,0,1,220.486,213.743Zm0,0" transform="translate(-178.515 -178.515)" fill="#fff"/>
  <path id="Контур_17" data-name="Контур 17" d="M167.837,140.142A6.7,6.7,0,0,0,164,136.3a11.192,11.192,0,0,0-3.756-.7c-2.133-.1-2.773-.118-8.174-.118s-6.041.02-8.174.118a11.2,11.2,0,0,0-3.756.7,6.7,6.7,0,0,0-3.84,3.839,11.2,11.2,0,0,0-.7,3.756c-.1,2.133-.118,2.773-.118,8.174s.021,6.041.118,8.174a11.192,11.192,0,0,0,.7,3.756,6.7,6.7,0,0,0,3.839,3.839,11.178,11.178,0,0,0,3.756.7c2.133.1,2.772.118,8.174.118s6.042-.02,8.174-.118a11.178,11.178,0,0,0,3.756-.7A6.7,6.7,0,0,0,167.837,164a11.2,11.2,0,0,0,.7-3.756c.1-2.133.118-2.773.118-8.174s-.02-6.041-.118-8.174A11.178,11.178,0,0,0,167.837,140.142Zm-15.769,22.317a10.387,10.387,0,1,1,10.387-10.387A10.387,10.387,0,0,1,152.068,162.459Zm10.8-18.758a2.427,2.427,0,1,1,2.428-2.427A2.428,2.428,0,0,1,162.866,143.7Zm0,0" transform="translate(-116.841 -116.844)" fill="#fff"/>
  <path id="Контур_18" data-name="Контур 18" d="M35.228,0A35.228,35.228,0,1,0,70.455,35.228,35.231,35.231,0,0,0,35.228,0ZM55.334,43.567a14.841,14.841,0,0,1-.94,4.91,10.343,10.343,0,0,1-5.916,5.916,14.851,14.851,0,0,1-4.91.94c-2.157.1-2.846.122-8.34.122s-6.183-.024-8.34-.122a14.851,14.851,0,0,1-4.91-.94,10.343,10.343,0,0,1-5.916-5.916,14.837,14.837,0,0,1-.94-4.91c-.1-2.158-.123-2.847-.123-8.34s.023-6.183.122-8.34a14.843,14.843,0,0,1,.94-4.91,10.35,10.35,0,0,1,5.917-5.916,14.855,14.855,0,0,1,4.91-.94c2.157-.1,2.846-.122,8.34-.122s6.183.024,8.34.123a14.858,14.858,0,0,1,4.91.939,10.346,10.346,0,0,1,5.916,5.917,14.839,14.839,0,0,1,.941,4.91c.1,2.157.121,2.846.121,8.34S55.433,41.41,55.334,43.567Zm0,0" fill="#fff"/>
</svg>
