<svg id="_008-youtube" data-name="008-youtube" xmlns="http://www.w3.org/2000/svg" width="70.455" height="70.455" viewBox="0 0 70.455 70.455">
  <path id="Контур_12" data-name="Контур 12" d="M224.113,221.239l11.459-6.6-11.459-6.6Zm0,0" transform="translate(-193.273 -179.411)" fill="#fff"/>
  <path id="Контур_13" data-name="Контур 13" d="M35.228,0A35.228,35.228,0,1,0,70.455,35.228,35.231,35.231,0,0,0,35.228,0ZM57.24,35.264s0,7.144-.906,10.589a5.516,5.516,0,0,1-3.88,3.88c-3.445.907-17.225.907-17.225.907S21.484,50.64,18,49.7a5.517,5.517,0,0,1-3.88-3.88c-.907-3.408-.907-10.589-.907-10.589s0-7.144.907-10.589A5.628,5.628,0,0,1,18,20.722c3.445-.907,17.225-.907,17.225-.907s13.78,0,17.225.943a5.517,5.517,0,0,1,3.88,3.88C57.276,28.084,57.24,35.264,57.24,35.264Zm0,0" fill="#fff"/>
</svg>
